<?xml version="1.0" encoding="UTF-8" standalone="no"?>
<svg
   xmlns:dc="http://purl.org/dc/elements/1.1/"
   xmlns:cc="http://creativecommons.org/ns#"
   xmlns:rdf="http://www.w3.org/1999/02/22-rdf-syntax-ns#"
   xmlns:svg="http://www.w3.org/2000/svg"
   xmlns="http://www.w3.org/2000/svg"
   viewBox="0 0 2046.72 511.67999"
   height="511.67999"
   width="2046.72"
   xml:space="preserve"
   id="svg2"
   version="1.1"><metadata
     id="metadata8"><rdf:RDF><cc:Work
         rdf:about=""><dc:format>image/svg+xml</dc:format><dc:type
           rdf:resource="http://purl.org/dc/dcmitype/StillImage" /></cc:Work></rdf:RDF></metadata><defs
     id="defs6"><clipPath
       id="clipPath18"
       clipPathUnits="userSpaceOnUse"><path
         style="clip-rule:evenodd"
         id="path16"
         d="M 0,9.1553e-5 H 1535.04 V 383.76009 H 0 Z" /></clipPath><clipPath
       id="clipPath28"
       clipPathUnits="userSpaceOnUse"><path
         style="clip-rule:evenodd"
         id="path26"
         d="M -3.0518e-5,383.76 H 1535.04 V 9.1553e-5 H -6.1035e-5" /></clipPath><clipPath
       id="clipPath38"
       clipPathUnits="userSpaceOnUse"><path
         style="clip-rule:evenodd"
         id="path36"
         d="M -3.0518e-5,383.76 H 1535.04 V 9.1553e-5 H -6.1035e-5" /></clipPath><clipPath
       id="clipPath48"
       clipPathUnits="userSpaceOnUse"><path
         style="clip-rule:evenodd"
         id="path46"
         d="M -6.1035e-5,383.76 H 1535.04 V 6.1035e-5 L -6.1035e-5,9.1553e-5" /></clipPath><clipPath
       id="clipPath58"
       clipPathUnits="userSpaceOnUse"><path
         style="clip-rule:evenodd"
         id="path56"
         d="M -6.1035e-5,383.76 H 1535.04 V 6.1035e-5 L -6.1035e-5,9.1553e-5" /></clipPath><clipPath
       id="clipPath68"
       clipPathUnits="userSpaceOnUse"><path
         style="clip-rule:evenodd"
         id="path66"
         d="M -9.1553e-5,383.76 H 1535.04 V -9.1553e-5 L -6.1035e-5,9.1553e-5" /></clipPath><clipPath
       id="clipPath78"
       clipPathUnits="userSpaceOnUse"><path
         style="clip-rule:evenodd"
         id="path76"
         d="M -9.1553e-5,383.76 H 1535.04 V -9.1553e-5 L -6.1035e-5,9.1553e-5" /></clipPath><clipPath
       id="clipPath88"
       clipPathUnits="userSpaceOnUse"><path
         style="clip-rule:evenodd"
         id="path86"
         d="M -9.1553e-5,383.76 H 1535.04 V -3.0518e-5 L -3.0518e-5,9.1553e-5" /></clipPath><clipPath
       id="clipPath98"
       clipPathUnits="userSpaceOnUse"><path
         style="clip-rule:evenodd"
         id="path96"
         d="M -9.1553e-5,383.76 H 1535.04 V -3.0518e-5 L -3.0518e-5,9.1553e-5" /></clipPath><clipPath
       id="clipPath108"
       clipPathUnits="userSpaceOnUse"><path
         style="clip-rule:evenodd"
         id="path106"
         d="M -9.1553e-5,383.76 H 1535.04 V -3.0518e-5 H -3.0518e-5" /></clipPath><clipPath
       id="clipPath118"
       clipPathUnits="userSpaceOnUse"><path
         style="clip-rule:evenodd"
         id="path116"
         d="M -9.1553e-5,383.76 H 1535.04 V -3.0518e-5 H -3.0518e-5" /></clipPath><clipPath
       id="clipPath128"
       clipPathUnits="userSpaceOnUse"><path
         style="clip-rule:evenodd"
         id="path126"
         d="M -1.8311e-4,383.76 H 1535.04 V 3.0518e-5 L -1.2207e-4,0" /></clipPath><clipPath
       id="clipPath138"
       clipPathUnits="userSpaceOnUse"><path
         style="clip-rule:evenodd"
         id="path136"
         d="M -1.8311e-4,383.76 H 1535.04 V 3.0518e-5 L -1.2207e-4,0" /></clipPath><clipPath
       id="clipPath148"
       clipPathUnits="userSpaceOnUse"><path
         style="clip-rule:evenodd"
         id="path146"
         d="M -6.1035e-5,383.76 H 1535.04 V 2.4414e-4 L -6.1035e-5,1.5259e-4" /></clipPath><clipPath
       id="clipPath158"
       clipPathUnits="userSpaceOnUse"><path
         style="clip-rule:evenodd"
         id="path156"
         d="M -6.1035e-5,383.76 H 1535.04 V 2.4414e-4 L -6.1035e-5,1.5259e-4" /></clipPath><clipPath
       id="clipPath168"
       clipPathUnits="userSpaceOnUse"><path
         style="clip-rule:evenodd"
         id="path166"
         d="M -9.1553e-5,383.76 H 1535.04 V 2.1362e-4 L -9.1553e-5,9.1553e-5" /></clipPath><clipPath
       id="clipPath178"
       clipPathUnits="userSpaceOnUse"><path
         style="clip-rule:evenodd"
         id="path176"
         d="M -9.1553e-5,383.76 H 1535.04 V 2.1362e-4 L -9.1553e-5,9.1553e-5" /></clipPath><clipPath
       id="clipPath188"
       clipPathUnits="userSpaceOnUse"><path
         style="clip-rule:evenodd"
         id="path186"
         d="M -6.1035e-5,383.76 H 1535.04 V 2.4414e-4 L -6.1035e-5,9.1553e-5" /></clipPath><clipPath
       id="clipPath198"
       clipPathUnits="userSpaceOnUse"><path
         style="clip-rule:evenodd"
         id="path196"
         d="M -6.1035e-5,383.76 H 1535.04 V 2.4414e-4 L -6.1035e-5,9.1553e-5" /></clipPath><clipPath
       id="clipPath208"
       clipPathUnits="userSpaceOnUse"><path
         style="clip-rule:evenodd"
         id="path206"
         d="M -6.1035e-5,383.76 H 1535.04 V 2.1362e-4 L -6.1035e-5,9.1553e-5" /></clipPath><clipPath
       id="clipPath218"
       clipPathUnits="userSpaceOnUse"><path
         style="clip-rule:evenodd"
         id="path216"
         d="M -6.1035e-5,383.76 H 1535.04 V 2.1362e-4 L -6.1035e-5,9.1553e-5" /></clipPath><clipPath
       id="clipPath228"
       clipPathUnits="userSpaceOnUse"><path
         style="clip-rule:evenodd"
         id="path226"
         d="M -3.0518e-5,383.76 H 1535.04 V 2.1362e-4 L 0,1.2207e-4" /></clipPath><clipPath
       id="clipPath238"
       clipPathUnits="userSpaceOnUse"><path
         style="clip-rule:evenodd"
         id="path236"
         d="M -3.0518e-5,383.76 H 1535.04 V 2.1362e-4 L 0,1.2207e-4" /></clipPath><clipPath
       id="clipPath248"
       clipPathUnits="userSpaceOnUse"><path
         style="clip-rule:evenodd"
         id="path246"
         d="M -3.0518e-5,383.76 H 1535.04 V 1.8311e-4 L -3.0518e-5,9.1553e-5" /></clipPath><clipPath
       id="clipPath258"
       clipPathUnits="userSpaceOnUse"><path
         style="clip-rule:evenodd"
         id="path256"
         d="M -3.0518e-5,383.76 H 1535.04 V 1.8311e-4 L -3.0518e-5,9.1553e-5" /></clipPath><clipPath
       id="clipPath268"
       clipPathUnits="userSpaceOnUse"><path
         style="clip-rule:evenodd"
         id="path266"
         d="M -6.1035e-5,383.76 H 1535.04 V -6.1035e-5 L -6.1035e-5,6.1035e-5" /></clipPath><clipPath
       id="clipPath278"
       clipPathUnits="userSpaceOnUse"><path
         style="clip-rule:evenodd"
         id="path276"
         d="M -6.1035e-5,383.76 H 1535.04 V -6.1035e-5 L -6.1035e-5,6.1035e-5" /></clipPath><clipPath
       id="clipPath288"
       clipPathUnits="userSpaceOnUse"><path
         style="clip-rule:evenodd"
         id="path286"
         d="M 2.2874e-5,0 H 1535.04 V 383.76 H 2.2874e-5 Z" /></clipPath><clipPath
       id="clipPath300"
       clipPathUnits="userSpaceOnUse"><path
         style="clip-rule:evenodd"
         id="path298"
         d="M 2.2874e-5,0 H 1535.04 V 383.76 H 2.2874e-5 Z" /></clipPath></defs><g
     transform="matrix(1.3333333,0,0,-1.3333333,0,511.68)"
     id="g10"><g
       id="g12"><g
         clip-path="url(#clipPath18)"
         id="g14"><path
           id="path20"
           style="fill:#000000;fill-opacity:1;fill-rule:evenodd;stroke:none"
           d="M 0,3.0518e-5 H 1535.04 V 383.76003 H 0 Z" /></g></g><g
       id="g22"><g
         clip-path="url(#clipPath28)"
         id="g24"><path
           id="path30"
           style="fill:#ffffff;fill-opacity:1;fill-rule:evenodd;stroke:none"
           d="m 320.12,267.66 77.71,20.82 2.05,-7.68 -77.7,-20.82 z" /></g></g><g
       id="g32"><g
         clip-path="url(#clipPath38)"
         id="g34"><path
           id="path40"
           style="fill:none;stroke:#ffffff;stroke-width:4.5;stroke-linecap:butt;stroke-linejoin:miter;stroke-miterlimit:10;stroke-dasharray:none;stroke-opacity:1"
           d="m 320.12,267.66 77.71,20.82 2.05,-7.68 -77.7,-20.82 z" /></g></g><g
       id="g42"><g
         clip-path="url(#clipPath48)"
         id="g44"><path
           id="path50"
           style="fill:#ffffff;fill-opacity:1;fill-rule:evenodd;stroke:none"
           d="m 356.19,137.56 77.71,20.82 2.05,-7.68 -77.7,-20.82 z" /></g></g><g
       id="g52"><g
         clip-path="url(#clipPath58)"
         id="g54"><path
           id="path60"
           style="fill:none;stroke:#ffffff;stroke-width:4.5;stroke-linecap:butt;stroke-linejoin:miter;stroke-miterlimit:10;stroke-dasharray:none;stroke-opacity:1"
           d="m 356.19,137.56 77.71,20.82 2.05,-7.68 -77.7,-20.82 z" /></g></g><g
       id="g62"><g
         clip-path="url(#clipPath68)"
         id="g64"><path
           id="path70"
           style="fill:#ffffff;fill-opacity:1;fill-rule:evenodd;stroke:none"
           d="m 457.43,230.87 -56.88,56.88 -5.62,-5.62 56.88,-56.88 z" /></g></g><g
       id="g72"><g
         clip-path="url(#clipPath78)"
         id="g74"><path
           id="path80"
           style="fill:none;stroke:#ffffff;stroke-width:4.5;stroke-linecap:butt;stroke-linejoin:miter;stroke-miterlimit:10;stroke-dasharray:none;stroke-opacity:1"
           d="m 457.43,230.87 -56.88,56.88 -5.62,-5.62 56.88,-56.88 z" /></g></g><g
       id="g82"><g
         clip-path="url(#clipPath88)"
         id="g84"><path
           id="path90"
           style="fill:#ffffff;fill-opacity:1;fill-rule:evenodd;stroke:none"
           d="m 361.15,136.24 -56.89,56.88 -5.62,-5.62 56.89,-56.89 z" /></g></g><g
       id="g92"><g
         clip-path="url(#clipPath98)"
         id="g94"><path
           id="path100"
           style="fill:none;stroke:#ffffff;stroke-width:4.5;stroke-linecap:butt;stroke-linejoin:miter;stroke-miterlimit:10;stroke-dasharray:none;stroke-opacity:1"
           d="m 361.15,136.24 -56.89,56.88 -5.62,-5.62 56.89,-56.89 z" /></g></g><g
       id="g102"><g
         clip-path="url(#clipPath108)"
         id="g104"><path
           id="path110"
           style="fill:#ffffff;fill-opacity:1;fill-rule:evenodd;stroke:none"
           d="m 306.19,186.79 20.82,77.71 -7.68,2.05 -20.82,-77.7 z" /></g></g><g
       id="g112"><g
         clip-path="url(#clipPath118)"
         id="g114"><path
           id="path120"
           style="fill:none;stroke:#ffffff;stroke-width:4.5;stroke-linecap:butt;stroke-linejoin:miter;stroke-miterlimit:10;stroke-dasharray:none;stroke-opacity:1"
           d="m 306.19,186.79 20.82,77.71 -7.68,2.05 -20.82,-77.7 z" /></g></g><g
       id="g122"><g
         clip-path="url(#clipPath128)"
         id="g124"><path
           id="path130"
           style="fill:#ffffff;fill-opacity:1;fill-rule:evenodd;stroke:none"
           d="m 436.51,151.87 20.82,77.71 -7.67,2.05 -20.82,-77.7 z" /></g></g><g
       id="g132"><g
         clip-path="url(#clipPath138)"
         id="g134"><path
           id="path140"
           style="fill:none;stroke:#ffffff;stroke-width:4.5;stroke-linecap:butt;stroke-linejoin:miter;stroke-miterlimit:10;stroke-dasharray:none;stroke-opacity:1"
           d="m 436.51,151.87 20.82,77.71 -7.67,2.05 -20.82,-77.7 z" /></g></g><g
       id="g142"><g
         clip-path="url(#clipPath148)"
         id="g144"><path
           id="path150"
           style="fill:#ffffff;fill-opacity:1;fill-rule:evenodd;stroke:none"
           d="m 396.75,287.08 c 0.3,1.12 1.46,1.79 2.58,1.49 1.13,-0.3 1.79,-1.46 1.49,-2.58 -0.3,-1.13 -1.46,-1.8 -2.58,-1.49 -1.13,0.3 -1.79,1.45 -1.49,2.58 z" /></g></g><g
       id="g152"><g
         clip-path="url(#clipPath158)"
         id="g154"><path
           id="path160"
           style="fill:none;stroke:#ffffff;stroke-width:4.5;stroke-linecap:butt;stroke-linejoin:miter;stroke-miterlimit:10;stroke-dasharray:none;stroke-opacity:1"
           d="m 396.75,287.08 c 0.3,1.12 1.46,1.79 2.58,1.49 1.13,-0.3 1.79,-1.46 1.49,-2.58 -0.3,-1.13 -1.46,-1.8 -2.58,-1.49 -1.13,0.3 -1.79,1.45 -1.49,2.58 z" /></g></g><g
       id="g162"><g
         clip-path="url(#clipPath168)"
         id="g164"><path
           id="path170"
           style="fill:#ffffff;fill-opacity:1;fill-rule:evenodd;stroke:none"
           d="m 355.28,132.31 c 0.3,1.12 1.46,1.79 2.58,1.49 1.13,-0.3 1.79,-1.46 1.49,-2.58 -0.3,-1.13 -1.46,-1.79 -2.58,-1.49 -1.13,0.3 -1.79,1.46 -1.49,2.58 z" /></g></g><g
       id="g172"><g
         clip-path="url(#clipPath178)"
         id="g174"><path
           id="path180"
           style="fill:none;stroke:#ffffff;stroke-width:4.5;stroke-linecap:butt;stroke-linejoin:miter;stroke-miterlimit:10;stroke-dasharray:none;stroke-opacity:1"
           d="m 355.28,132.31 c 0.3,1.12 1.46,1.79 2.58,1.49 1.13,-0.3 1.79,-1.46 1.49,-2.58 -0.3,-1.13 -1.46,-1.79 -2.58,-1.49 -1.13,0.3 -1.79,1.46 -1.49,2.58 z" /></g></g><g
       id="g182"><g
         clip-path="url(#clipPath188)"
         id="g184"><path
           id="path190"
           style="fill:#ffffff;fill-opacity:1;fill-rule:evenodd;stroke:none"
           d="m 298.56,189.03 c 0.3,1.13 1.46,1.8 2.59,1.5 1.12,-0.31 1.79,-1.46 1.49,-2.59 -0.3,-1.12 -1.46,-1.79 -2.59,-1.49 -1.12,0.3 -1.79,1.46 -1.49,2.58 z" /></g></g><g
       id="g192"><g
         clip-path="url(#clipPath198)"
         id="g194"><path
           id="path200"
           style="fill:none;stroke:#ffffff;stroke-width:4.5;stroke-linecap:butt;stroke-linejoin:miter;stroke-miterlimit:10;stroke-dasharray:none;stroke-opacity:1"
           d="m 298.56,189.03 c 0.3,1.13 1.46,1.8 2.59,1.5 1.12,-0.31 1.79,-1.46 1.49,-2.59 -0.3,-1.12 -1.46,-1.79 -2.59,-1.49 -1.12,0.3 -1.79,1.46 -1.49,2.58 z" /></g></g><g
       id="g202"><g
         clip-path="url(#clipPath208)"
         id="g204"><path
           id="path210"
           style="fill:#ffffff;fill-opacity:1;fill-rule:evenodd;stroke:none"
           d="m 432.38,152.95 c 0.3,1.13 1.46,1.79 2.58,1.49 1.13,-0.3 1.79,-1.46 1.49,-2.58 -0.3,-1.12 -1.46,-1.79 -2.58,-1.49 -1.12,0.3 -1.79,1.46 -1.49,2.58 z" /></g></g><g
       id="g212"><g
         clip-path="url(#clipPath218)"
         id="g214"><path
           id="path220"
           style="fill:none;stroke:#ffffff;stroke-width:4.5;stroke-linecap:butt;stroke-linejoin:miter;stroke-miterlimit:10;stroke-dasharray:none;stroke-opacity:1"
           d="m 432.38,152.95 c 0.3,1.13 1.46,1.79 2.58,1.49 1.13,-0.3 1.79,-1.46 1.49,-2.58 -0.3,-1.12 -1.46,-1.79 -2.58,-1.49 -1.12,0.3 -1.79,1.46 -1.49,2.58 z" /></g></g><g
       id="g222"><g
         clip-path="url(#clipPath228)"
         id="g224"><path
           id="path230"
           style="fill:#ffffff;fill-opacity:1;fill-rule:evenodd;stroke:none"
           d="m 319.29,266.37 c 0.3,1.13 1.45,1.79 2.58,1.49 1.12,-0.3 1.79,-1.46 1.49,-2.58 -0.3,-1.13 -1.46,-1.79 -2.58,-1.49 -1.13,0.3 -1.8,1.46 -1.49,2.58 z" /></g></g><g
       id="g232"><g
         clip-path="url(#clipPath238)"
         id="g234"><path
           id="path240"
           style="fill:none;stroke:#ffffff;stroke-width:4.5;stroke-linecap:butt;stroke-linejoin:miter;stroke-miterlimit:10;stroke-dasharray:none;stroke-opacity:1"
           d="m 319.29,266.37 c 0.3,1.13 1.45,1.79 2.58,1.49 1.12,-0.3 1.79,-1.46 1.49,-2.58 -0.3,-1.13 -1.46,-1.79 -2.58,-1.49 -1.13,0.3 -1.8,1.46 -1.49,2.58 z" /></g></g><g
       id="g242"><g
         clip-path="url(#clipPath248)"
         id="g244"><path
           id="path250"
           style="fill:#ffffff;fill-opacity:1;fill-rule:evenodd;stroke:none"
           d="m 453.2,230.65 c 0.3,1.13 1.46,1.8 2.58,1.5 1.13,-0.31 1.79,-1.46 1.49,-2.59 -0.3,-1.12 -1.45,-1.79 -2.58,-1.49 -1.12,0.3 -1.79,1.46 -1.49,2.58 z" /></g></g><g
       id="g252"><g
         clip-path="url(#clipPath258)"
         id="g254"><path
           id="path260"
           style="fill:none;stroke:#ffffff;stroke-width:4.5;stroke-linecap:butt;stroke-linejoin:miter;stroke-miterlimit:10;stroke-dasharray:none;stroke-opacity:1"
           d="m 453.2,230.65 c 0.3,1.13 1.46,1.8 2.58,1.5 1.13,-0.31 1.79,-1.46 1.49,-2.59 -0.3,-1.12 -1.45,-1.79 -2.58,-1.49 -1.12,0.3 -1.79,1.46 -1.49,2.58 z" /></g></g><g
       id="g262"><g
         clip-path="url(#clipPath268)"
         id="g264"><path
           id="path270"
           style="fill:#ffffff;fill-opacity:1;fill-rule:evenodd;stroke:none"
           d="m 463.1,130.33 -29.54,29.54 -5.62,-5.62 29.54,-29.54 z" /></g></g><g
       id="g272"><g
         clip-path="url(#clipPath278)"
         id="g274"><path
           id="path280"
           style="fill:none;stroke:#ffffff;stroke-width:4.5;stroke-linecap:butt;stroke-linejoin:miter;stroke-miterlimit:10;stroke-dasharray:none;stroke-opacity:1"
           d="m 463.1,130.33 -29.54,29.54 -5.62,-5.62 29.54,-29.54 z" /></g></g><g
       id="g282"><g
         clip-path="url(#clipPath288)"
         id="g284"><text
           id="text292"
           style="font-variant:normal;font-weight:normal;font-size:118.01000214px;font-family:ArialMT;-inkscape-font-specification:ArialMT;writing-mode:lr-tb;fill:#ffffff;fill-opacity:1;fill-rule:nonzero;stroke:none"
           transform="matrix(1,0,0,-1,467.74,148.61)"><tspan
             id="tspan290"
             y="0"
             x="0 65.613564 131.22713 170.52444 229.52945 295.14301">uercus</tspan></text>
</g></g><g
       id="g294"><g
         clip-path="url(#clipPath300)"
         id="g296"><text
           id="text304"
           style="font-variant:normal;font-weight:normal;font-size:118.01000214px;font-family:ArialMT;-inkscape-font-specification:ArialMT;writing-mode:lr-tb;fill:#ffffff;fill-opacity:1;fill-rule:nonzero;stroke:none"
           transform="matrix(1,0,0,-1,851.04,148.61)"><tspan
             id="tspan302"
             y="0"
             x="0 76.588493 102.78671 168.40027 253.60349 319.21704">Viewer</tspan></text>
</g></g></g></svg>