<?xml version="1.0" encoding="UTF-8" standalone="no"?>
<svg
   xmlns:dc="http://purl.org/dc/elements/1.1/"
   xmlns:cc="http://creativecommons.org/ns#"
   xmlns:rdf="http://www.w3.org/1999/02/22-rdf-syntax-ns#"
   xmlns:svg="http://www.w3.org/2000/svg"
   xmlns="http://www.w3.org/2000/svg"
   viewBox="0 0 511.67999 511.67999"
   height="511.67999"
   width="511.67999"
   xml:space="preserve"
   id="svg2"
   version="1.1"><metadata
     id="metadata8"><rdf:RDF><cc:Work
         rdf:about=""><dc:format>image/svg+xml</dc:format><dc:type
           rdf:resource="http://purl.org/dc/dcmitype/StillImage" /></cc:Work></rdf:RDF></metadata><defs
     id="defs6"><clipPath
       id="clipPath18"
       clipPathUnits="userSpaceOnUse"><path
         style="clip-rule:evenodd"
         id="path16"
         d="M 0,9.1553e-5 H 383.76 V 383.76009 H 0 Z" /></clipPath><clipPath
       id="clipPath28"
       clipPathUnits="userSpaceOnUse"><path
         style="clip-rule:evenodd"
         id="path26"
         d="M -7.629e-6,383.76 H 383.76 V 1.5259e-4 L -2.2888e-5,1.2207e-4" /></clipPath><clipPath
       id="clipPath38"
       clipPathUnits="userSpaceOnUse"><path
         style="clip-rule:evenodd"
         id="path36"
         d="M 0,383.76 H 383.76 V 9.1553e-5 H -4.5776e-5" /></clipPath><clipPath
       id="clipPath48"
       clipPathUnits="userSpaceOnUse"><path
         style="clip-rule:evenodd"
         id="path46"
         d="M -6.1035e-5,383.76 H 383.76 V 0 L -6.1035e-5,6.1035e-5" /></clipPath><clipPath
       id="clipPath58"
       clipPathUnits="userSpaceOnUse"><path
         style="clip-rule:evenodd"
         id="path56"
         d="M -4.5776e-5,383.76 H 383.76 V 3.0518e-5 L -1.5259e-5,6.1035e-5" /></clipPath><clipPath
       id="clipPath68"
       clipPathUnits="userSpaceOnUse"><path
         style="clip-rule:evenodd"
         id="path66"
         d="M -2.2888e-5,383.76 H 383.76 V 0 H 7.629e-6" /></clipPath><clipPath
       id="clipPath78"
       clipPathUnits="userSpaceOnUse"><path
         style="clip-rule:evenodd"
         id="path76"
         d="M -1.2207e-4,383.76 H 383.76 V 0 H -6.1035e-5" /></clipPath><clipPath
       id="clipPath88"
       clipPathUnits="userSpaceOnUse"><path
         style="clip-rule:evenodd"
         id="path86"
         d="M -4.5776e-5,383.76 H 383.76 V 1.8311e-4 L -1.5259e-5,1.2207e-4" /></clipPath><clipPath
       id="clipPath98"
       clipPathUnits="userSpaceOnUse"><path
         style="clip-rule:evenodd"
         id="path96"
         d="M -3.0518e-5,383.76 H 383.76 V 1.2207e-4 L 0,9.1553e-5" /></clipPath><clipPath
       id="clipPath108"
       clipPathUnits="userSpaceOnUse"><path
         style="clip-rule:evenodd"
         id="path106"
         d="M -1.9073e-5,383.76 H 383.76 V 1.2207e-4 L 0,9.1553e-5" /></clipPath><clipPath
       id="clipPath118"
       clipPathUnits="userSpaceOnUse"><path
         style="clip-rule:evenodd"
         id="path116"
         d="M -9.1553e-5,383.76 H 383.76 V 1.2207e-4 L -9.1553e-5,6.1035e-5" /></clipPath><clipPath
       id="clipPath128"
       clipPathUnits="userSpaceOnUse"><path
         style="clip-rule:evenodd"
         id="path126"
         d="M -2.2888e-5,383.76 H 383.76 V 1.2207e-4 H -7.629e-6" /></clipPath><clipPath
       id="clipPath138"
       clipPathUnits="userSpaceOnUse"><path
         style="clip-rule:evenodd"
         id="path136"
         d="M -1.2207e-4,383.76 H 383.76 V 1.5259e-4 L -9.1553e-5,9.1553e-5" /></clipPath><clipPath
       id="clipPath148"
       clipPathUnits="userSpaceOnUse"><path
         style="clip-rule:evenodd"
         id="path146"
         d="M -9.1553e-5,383.76 H 383.76 V 3.0518e-5 L -3.0518e-5,6.1035e-5" /></clipPath></defs><g
     transform="matrix(1.3333333,0,0,-1.3333333,0,511.68)"
     id="g10"><g
       id="g12"><g
         clip-path="url(#clipPath18)"
         id="g14"><path
           id="path20"
           style="fill:#000000;fill-opacity:1;fill-rule:evenodd;stroke:none"
           d="M 0,3.0518e-5 H 383.76 V 383.76003 H 0 Z" /></g></g><g
       id="g22"><g
         clip-path="url(#clipPath28)"
         id="g24"><path
           id="path30"
           style="fill:#ffffff;fill-opacity:1;fill-rule:evenodd;stroke:none"
           d="m 75.048,315.5 156.762,42 4.15,-15.49 -156.762,-42 z" /></g></g><g
       id="g32"><g
         clip-path="url(#clipPath38)"
         id="g34"><path
           id="path40"
           style="fill:#ffffff;fill-opacity:1;fill-rule:evenodd;stroke:none"
           d="M 147.82,53.024 304.58,95.029 308.73,79.539 151.97,37.534 Z" /></g></g><g
       id="g42"><g
         clip-path="url(#clipPath48)"
         id="g44"><path
           id="path50"
           style="fill:#ffffff;fill-opacity:1;fill-rule:evenodd;stroke:none"
           d="M 352.07,241.27 237.31,356.03 225.97,344.69 340.73,229.93 Z" /></g></g><g
       id="g52"><g
         clip-path="url(#clipPath58)"
         id="g54"><path
           id="path60"
           style="fill:#ffffff;fill-opacity:1;fill-rule:evenodd;stroke:none"
           d="M 157.81,50.347 43.051,165.11 31.712,153.77 146.47,39.008 Z" /></g></g><g
       id="g62"><g
         clip-path="url(#clipPath68)"
         id="g64"><path
           id="path70"
           style="fill:#ffffff;fill-opacity:1;fill-rule:evenodd;stroke:none"
           d="M 46.939,152.35 88.944,309.11 73.455,313.26 31.45,156.5 Z" /></g></g><g
       id="g72"><g
         clip-path="url(#clipPath78)"
         id="g74"><path
           id="path80"
           style="fill:#ffffff;fill-opacity:1;fill-rule:evenodd;stroke:none"
           d="M 309.86,81.898 351.87,238.66 336.38,242.81 294.37,86.049 Z" /></g></g><g
       id="g82"><g
         clip-path="url(#clipPath88)"
         id="g84"><path
           id="path90"
           style="fill:#ffffff;fill-opacity:1;fill-rule:evenodd;stroke:none"
           d="m 229.64,354.67 c 0.6,2.27 2.94,3.62 5.21,3.01 2.27,-0.61 3.61,-2.94 3,-5.21 -0.6,-2.27 -2.94,-3.62 -5.21,-3.01 -2.26,0.61 -3.61,2.94 -3,5.21 z" /></g></g><g
       id="g92"><g
         clip-path="url(#clipPath98)"
         id="g94"><path
           id="path100"
           style="fill:#ffffff;fill-opacity:1;fill-rule:evenodd;stroke:none"
           d="m 145.97,42.428 c 0.61,2.27 2.94,3.616 5.21,3.008 2.27,-0.608 3.62,-2.941 3.01,-5.21 -0.61,-2.269 -2.94,-3.616 -5.21,-3.008 -2.27,0.608 -3.62,2.941 -3.01,5.21 z" /></g></g><g
       id="g102"><g
         clip-path="url(#clipPath108)"
         id="g104"><path
           id="path110"
           style="fill:#ffffff;fill-opacity:1;fill-rule:evenodd;stroke:none"
           d="m 31.549,156.87 c 0.608,2.27 2.941,3.62 5.21,3.01 2.27,-0.61 3.616,-2.94 3.008,-5.21 -0.608,-2.27 -2.94,-3.62 -5.21,-3.01 -2.269,0.61 -3.616,2.94 -3.008,5.21 z" /></g></g><g
       id="g112"><g
         clip-path="url(#clipPath118)"
         id="g114"><path
           id="path120"
           style="fill:#ffffff;fill-opacity:1;fill-rule:evenodd;stroke:none"
           d="m 301.52,84.072 c 0.61,2.269 2.94,3.616 5.21,3.008 2.27,-0.608 3.62,-2.941 3.01,-5.21 -0.61,-2.27 -2.94,-3.616 -5.21,-3.008 -2.27,0.608 -3.62,2.941 -3.01,5.21 z" /></g></g><g
       id="g122"><g
         clip-path="url(#clipPath128)"
         id="g124"><path
           id="path130"
           style="fill:#ffffff;fill-opacity:1;fill-rule:evenodd;stroke:none"
           d="m 73.356,312.89 c 0.608,2.27 2.941,3.62 5.21,3.01 2.269,-0.61 3.616,-2.94 3.008,-5.21 -0.608,-2.27 -2.941,-3.61 -5.21,-3.01 -2.269,0.61 -3.616,2.94 -3.008,5.21 z" /></g></g><g
       id="g132"><g
         clip-path="url(#clipPath138)"
         id="g134"><path
           id="path140"
           style="fill:#ffffff;fill-opacity:1;fill-rule:evenodd;stroke:none"
           d="m 343.53,240.84 c 0.61,2.27 2.94,3.61 5.21,3 2.27,-0.6 3.61,-2.94 3.01,-5.21 -0.61,-2.27 -2.95,-3.61 -5.21,-3 -2.27,0.6 -3.62,2.94 -3.01,5.21 z" /></g></g><g
       id="g142"><g
         clip-path="url(#clipPath148)"
         id="g144"><path
           id="path150"
           style="fill:#ffffff;fill-opacity:1;fill-rule:evenodd;stroke:none"
           d="M 363.5,38.439 303.9,98.035 292.56,86.696 352.16,27.1 Z" /></g></g></g></svg>